<svg version="1.1" viewBox="0 0 135.481 89.707" xmlns="http://www.w3.org/2000/svg">
	<path d="m43.064 84.873c0.862-6.757-3.853-14.001-10.908-14.581-6.306-0.258-12.618-0.143-18.927-0.175v-17.727h-8.202v19.58c-1.52-0.483-5.063 1.06-5.027-0.977v-43.21c1.519 0.481 5.063-1.063 5.027 0.974v18.605h8.202l0.015-16.8c6.842-3.747 12.33-9.746 15.622-16.802h27.225v-8.724l-19.711-0.138c0.442-1.469-1.224-4.982 0.822-4.895h43.495c-0.481 1.519 1.062 5.063-0.974 5.027h-18.883l0.145 8.599 31.28 0.136c2.073 19.055 3.372 13.65 17.536 17.254v8.936h9.26v-10.32c5.587-0.497 11.932 1.134 14.68 6.496l0.988 37.537c-2.018 6.307-8.871 9.304-15.091 8.62-1.229-3.443-0.576-7.752-0.576-11.641h-9.21c-0.245 5.345 0.712 11.6-3.902 15.449-4.335 4.833-11.236 3.087-16.943 3.482-15.277 0.065-30.553 0.087-45.83 0.13-0.038-1.611-0.077-3.224-0.113-4.835z"/>
</svg>
